<svg width="50" height="50" viewBox="0 0 50 50" fill="none" xmlns="http://www.w3.org/2000/svg">
<path d="M25 50C38.8071 50 50 38.8071 50 25C50 11.1929 38.8071 0 25 0C11.1929 0 0 11.1929 0 25C0 38.8071 11.1929 50 25 50Z" fill="#F3F4F6"/>
<path d="M30.7875 12.5252C29.134 11.8443 27.2372 11.5039 25.1459 11.5039C23.3951 11.5039 21.7901 11.7957 20.2824 12.3307C18.7261 12.9143 17.5103 13.7411 16.5862 14.8111C15.6135 15.9297 15.1758 17.2914 15.1758 18.8478C15.1758 22.7872 18.2884 25.3648 24.5137 26.532C26.8968 27.0184 28.599 27.5534 29.6203 28.2343C30.593 28.9151 31.128 29.7419 31.128 30.7146C31.128 31.7846 30.593 32.6114 29.5717 33.195C28.5503 33.8272 27.1399 34.1191 25.2918 34.1191C23.8814 34.1191 22.5683 33.8759 21.3524 33.3895C20.0879 32.9032 19.1638 32.2709 18.5802 31.5901C17.9966 31.0064 17.3644 30.7146 16.7321 30.7146C16.1971 30.7146 15.6135 30.9578 15.0299 31.3955C14.349 31.8819 14.0572 32.5141 14.0572 33.2923C14.0572 33.8759 14.2517 34.4109 14.6894 34.7999C15.7594 35.9185 17.3157 36.794 19.2611 37.4749C21.2065 38.1557 23.2492 38.4962 25.4864 38.4962C27.6749 38.4962 29.5717 38.1557 31.128 37.4749C32.6843 36.794 33.9002 35.8213 34.727 34.6054C35.5051 33.3895 35.9428 32.0278 35.9428 30.5201C35.9428 28.5261 35.1647 26.8725 33.7056 25.608C32.2466 24.3435 29.7176 23.3708 26.2159 22.6413C24.465 22.3008 23.1519 21.9604 22.2765 21.5713C21.3524 21.1822 20.7202 20.7931 20.4283 20.3554C20.0879 19.9177 19.942 19.3827 19.942 18.7018C19.942 17.8264 20.3797 17.0969 21.3524 16.6106C22.3251 16.1242 23.541 15.8324 25.0486 15.8324C26.3131 15.8324 27.4317 16.0269 28.3558 16.3187C29.2312 16.6106 30.1067 17.1455 30.9335 17.8751C31.6143 18.5073 32.3439 18.7991 33.2193 18.7991C33.7543 18.7991 34.192 18.7018 34.5811 18.41C35.116 17.9723 35.4078 17.486 35.4078 16.9024C35.4078 16.416 35.1647 15.881 34.7756 15.3461C33.8029 14.1788 32.4411 13.2061 30.7875 12.5252V12.5252Z" fill="#111827"/>
</svg>
